<svg width="109" height="73" xmlns="http://www.w3.org/2000/svg"><g fill="none"><path d="M108.815 44.69a54.766 54.766 0 00-4.201-17.585C99.283 14.77 89.472 6.365 76.24 2.795 70.34 1.202 62.947.428 53.641.428c-6.701 0-13.408.377-19.893.742-5.563.313-10.818.608-15.333.608-5.606 0-9.358-.477-11.471-1.459A3.4 3.4 0 005.503 0a3.345 3.345 0 00-3.25 2.485c-.245.94-.504 2.21-.732 3.581C.978 8.324.234 12.11.03 18.89c-.468 15.873 4.372 29.418 13.995 39.173C23.583 67.751 37.295 72.917 53.68 73h.76c15.59 0 25.548-2.495 33.555-4.502 5.477-1.372 10.207-2.557 15.325-2.582l.705-.006.025-.03a4.183 4.183 0 003.679-3.292 66.534 66.534 0 001.085-17.897z" fill="#78BE20"/><path d="M6.272 1.677a.939.939 0 00-1.31.613 67.237 67.237 0 00-1.627 11.782c-.909 30.72 18.209 53.764 52.76 53.93 27.05.128 34.592-5.162 47.853-5.23a1.792 1.792 0 001.777-1.403c4.374-22.277-2.376-49.683-29.76-57.072-22.416-6.049-58.833 2.43-69.693-2.62z" fill="#FFF"/><path d="M64.916 19.088l1.548-1.748a.356.356 0 01.484-.023.295.295 0 01.04.447s-.695.836-2.072 2.39v-1.066zm-4.611 24.328c.34.503.675.959 1.092 1.53a.353.353 0 00.596-.375c-.298-.443-.544-.742-.831-1.155h-.857zm4.61-16.35l4.512-2.433a.309.309 0 00.12-.433.329.329 0 00-.452-.122l-4.179 2.17v.817zm-7.568 21.047c-.402-1.7-.48-1.901-.818-3.576-.974-4.128-.808-4.374-.718-6.533a22.51 22.51 0 014.264 5.08c.16-.107.426-.282.603-.408-.63-.914-1.144-1.733-1.771-2.631a17.78 17.78 0 01-1.304-3.249c1.095.38 2.147.871 3.14 1.467.5.313 1.644 1.095 1.98 1.282a.39.39 0 00.511-.095.35.35 0 00-.095-.48c-.884-.647-1.294-.91-1.996-1.451a13.591 13.591 0 01-2.325-2.446 16.186 16.186 0 014.144.368c1.671.372 3.316.827 5.16 1.164a.33.33 0 00.401-.213.335.335 0 00-.232-.41c-1.754-.441-3.498-.853-5.15-1.276a14.64 14.64 0 01-3.814-1.719 18.896 18.896 0 014.273-1.12 3035.68 3035.68 0 0110.799-1.412.354.354 0 00.308-.383.344.344 0 00-.38-.29s-10.203 1.252-10.857 1.327a13.632 13.632 0 01-4.426-.206c1.813-1.61 2.09-1.873 5.533-3.67a4.99 4.99 0 00-.344-.634c-3.592 2.03-4.152 1.958-6.227 2.432.509-.864.646-1.753 3.788-5.348-.15-.137-.34-.327-.548-.489-2.225 2.647-2.788 3.076-4.924 4.557.225-1.834.118-2.341 1.595-6.424-.25-.082-.462-.134-.717-.218-1.373 4.171-1.884 4.288-2.912 5.907-.554-1.7-.833-3.553-.894-6.485a4.158 4.158 0 00-.722.025c.32 4.299-.375 5.575-.55 6.547-1.225-1.74-1.563-1.94-3.226-5.741a6.9 6.9 0 00-.67.27c1.426 3.022 1.64 4.253 1.922 6.33-1.991-1.236-3.326-2.385-5.476-4.562l-6.308-6.321a.37.37 0 00-.507-.015.323.323 0 00-.013.476l8.428 8.496a16.37 16.37 0 012.332 3.408c-3.48-.592-5.392-1.782-8.85-3.193a.349.349 0 00-.453.185.354.354 0 00.185.459c4.275 1.912 6.092 2.59 8.234 4.5-2.737.605-5.01.371-8.57.176a.34.34 0 00-.347.343.335.335 0 00.34.36c3.567.28 5.938.217 8.503 1.2a20.33 20.33 0 01-4.415 2.109l-7.622 2.43a.356.356 0 00.25.665l5.653-1.823.198-.063c3.32-1.088 4.344-1.192 6.597-1.233a22.345 22.345 0 01-4.773 4.565c.132.16.315.356.468.54 3.382-2.84 4.25-2.809 5.652-3.549-.617 2.205-.955 3.079-2.71 6.028-.782 1.443-1.23 2.027-2.155 3.808a.335.335 0 00.128.472.34.34 0 00.47-.119c.89-1.557 1.329-2.349 2.182-3.766 2.018-3.706 3.187-4.48 4.015-5.38a24.252 24.252 0 01-.366 6.563c-.075.556-.166 1.117-.24 1.714-.016.19.118.36.306.39a.332.332 0 00.397-.276c.093-.589.174-1.155.257-1.725.528-3.689.875-4.204 1.73-6.339.78 1.56 1.232 2.101 2.145 6.214.331 1.32.43 1.869.826 3.41l.708.004zM49.821 32.7a3.624 3.624 0 113.618 3.606 3.586 3.586 0 01-3.618-3.606" fill="#F6E500"/><path d="M48.897 21.364c1.663 3.802 2.004 4 3.225 5.74.175-.969.874-2.236.553-6.546a13.222 13.222 0 00-3.778.806m8.302-.253c-1.372 4.162-1.883 4.288-2.912 5.907-.553-1.702-.833-3.553-.894-6.485a11.781 11.781 0 013.805.578m.71.218c-1.47 4.084-1.361 4.59-1.588 6.424 2.136-1.48 2.689-1.91 4.924-4.557-1-.804-2.127-1.435-3.335-1.867M41.706 36.787a12.675 12.675 0 001.83 3.338 22.834 22.834 0 004.776-4.566c-2.264.043-3.288.145-6.608 1.228m7.946.33c-1.408.738-2.27.716-5.651 3.548a11.902 11.902 0 002.945 2.466c1.751-2.924 2.09-3.81 2.706-6.014m1.93 1.041c-.829.901-1.997 1.675-3.992 5.357 1.142.579 2.365.983 3.627 1.2a24.17 24.17 0 00.365-6.557m2.076.319c-.846 2.144-1.207 2.66-1.715 6.35a13.34 13.34 0 003.869-.125c-.905-4.105-1.365-4.656-2.154-6.225m-16.94-15.919a6.884 6.884 0 01-2.61 11.347c-1.55.529-3.673.41-6.666.41V20.513c1.728 0 3.295.004 4.625.004a6.997 6.997 0 014.651 2.043m25.075 1.127c-3.142 3.59-3.278 4.483-3.788 5.348 2.074-.476 2.624-.402 6.226-2.433a11.855 11.855 0 00-2.44-2.915m24.8 4.547h-9.304c.698-1.587 2.798-2.706 4.619-2.706a5.251 5.251 0 014.682 2.706m-21.665-8.08v6.096l4.174-2.17a.329.329 0 01.483.364.307.307 0 01-.157.19l-4.5 2.432v.89l-.343-.719c-3.446 1.797-3.722 2.059-5.534 3.672a13.68 13.68 0 004.427.203c.654-.075 10.86-1.327 10.86-1.327a.34.34 0 01.377.292.356.356 0 01-.308.38s-9.79 1.266-10.803 1.411a18.77 18.77 0 00-4.27 1.121 14.445 14.445 0 003.813 1.719c1.654.429 3.398.835 5.15 1.277a.35.35 0 01.239.409.34.34 0 01-.407.213c-1.845-.34-3.5-.792-5.16-1.164-1.36-.3-2.753-.424-4.144-.368a13.57 13.57 0 002.325 2.446c.702.54 1.112.804 1.996 1.45a.353.353 0 01.095.481.387.387 0 01-.51.095c-.337-.187-1.48-.97-1.981-1.282a17.238 17.238 0 00-3.14-1.468 17.45 17.45 0 001.298 3.25c.632.888 1.146 1.717 1.777 2.631a12.619 12.619 0 004.21-5.041v3.375h2.973c.754 0 2.143.051 3.092-.915.572-.558.809-1.584.809-2.64v-2.02a8.347 8.347 0 001.569 2.46 11.31 11.31 0 0012.201 3.357 10.985 10.985 0 006.626-5.92h-6.952l-.846.43c-1.8.797-4.285.65-5.802-.642-.784-.648-1.49-1.496-1.645-2.429h16.06a10.867 10.867 0 00-.795-6.188 11.208 11.208 0 00-8.714-6.466 11.36 11.36 0 00-11.717 6.271V13.133c-1.036.004-2.739 0-3.265 0a4.11 4.11 0 00-2.256.57c-1.007.563-1.305 1.538-1.305 2.775v2.61a305.588 305.588 0 001.544-1.748.363.363 0 01.49-.023.298.298 0 01.033.447s-.695.829-2.067 2.39m-26.557-3.075l6.307 6.323c2.15 2.196 3.485 3.329 5.476 4.563-.288-2.086-.497-3.31-1.922-6.331a12.465 12.465 0 00-3.16 2.075c-.26-.61-.528-1.346-.823-1.992-2.128-4.454-6.902-7.771-12.003-7.88h-11.67v27.144h10.913a13.55 13.55 0 0010.026-4.126l-5.655 1.822a.356.356 0 01-.25-.666l7.614-2.428a20.274 20.274 0 004.426-2.105c-2.564-.987-4.937-.923-8.502-1.204a.35.35 0 01-.346-.36.346.346 0 01.355-.343c3.546.195 5.826.43 8.57-.177-2.143-1.91-3.96-2.587-8.235-4.5a.355.355 0 01-.184-.458.349.349 0 01.458-.187c3.47 1.428 5.448 2.628 8.85 3.206a16.075 16.075 0 00-2.332-3.419l-8.428-8.496a.318.318 0 01.021-.476.36.36 0 01.5.015m17.455 20.926c-.098 2.16-.266 2.403.708 6.533a12.835 12.835 0 003.546-1.452 23.166 23.166 0 00-4.254-5.081" fill="#C8102E"/><path d="M91.802 41.173H91.5v-1.331h.52c.362 0 .572.102.572.388a.322.322 0 01-.335.343l.354.6h-.351l-.312-.58h-.145v.58zm.263-.809c.134 0 .207-.03.207-.15s-.146-.135-.258-.135H91.8v.285h.264zm-.046 1.252a1.11 1.11 0 10-1.142-1.136 1.13 1.13 0 001.142 1.134v.002zm-1.413-1.136a1.405 1.405 0 011.413-1.344 1.371 1.371 0 110 2.742 1.415 1.415 0 01-1.413-1.4v.002zm-43.821 2.944c-.66 1.186-1.073 1.751-1.997 3.54a.32.32 0 00.127.46.345.345 0 00.471-.114c.89-1.563 1.343-2.367 2.194-3.794 1.15.571 2.375.975 3.638 1.2-.075.562-.17 1.123-.24 1.72-.016.19.118.36.306.39a.34.34 0 00.4-.276c.09-.588.177-1.149.254-1.724a12.92 12.92 0 003.868-.124c.36 1.342.438 1.86.833 3.396H20.454v-4.674h26.33m10.564 4.674h34.67v-4.674H61.164c.288.405.565.761.832 1.147a.358.358 0 01-.124.475.34.34 0 01-.453-.075 56.477 56.477 0 01-1.107-1.547h-.815c-.942.485-1.938.858-2.966 1.114.337 1.674.416 1.876.818 3.56" fill="#001489"/></g></svg>